# xmcd CD database file
#
# Track frame offsets:
#	150
#	21585
#	44397
#	60328
#	85935
#	115894
#	155380
#	181048
#	206283
#	223612
#	243070
#
# Disc length: 3957 seconds
#
# Revision: 0
# Processed by: cddbd v1.5PL3 Copyright (c) Steve Scherf et al.
# Submitted via: CDex 1.51
#
DISCID=870f730b
DTITLE=Kenny Wayne Shepherd - Live at the Strand Theatre 
DYEAR=1999
DGENRE=Blues
TTITLE0=So Excited 
TTITLE1=Somehow, Somewhere, Someday
TTITLE2=In 2 Deep
TTITLE3=Deja Voodoo
TTITLE4=Shame, Shame, Shame
TTITLE5=Live On
TTITLE6=Blue On Black
TTITLE7=Slow Ride
TTITLE8=Third Stone From The Sun
TTITLE9=Voodoo Child (Slight Return)
TTITLE10=Shotgun Blues
EXTD=YEAR: 1999
EXTT0=
EXTT1=
EXTT2=
EXTT3=
EXTT4=
EXTT5=
EXTT6=
EXTT7=
EXTT8=
EXTT9=
EXTT10=
PLAYORDER=
